<svg width="15" height="18" viewBox="0 0 15 18" fill="none" xmlns="http://www.w3.org/2000/svg">
<path d="M5.74095 3.49584L6.2572 4.92951C6.83067 6.52069 8.08368 7.7737 9.67486 8.34717L11.1085 8.86342C11.2378 8.91035 11.2378 9.09358 11.1085 9.13987L9.67486 9.65612C8.08368 10.2296 6.83067 11.4826 6.2572 13.0738L5.74095 14.5074C5.69402 14.6367 5.51079 14.6367 5.4645 14.5074L4.94825 13.0738C4.37478 11.4826 3.12177 10.2296 1.53059 9.65612L0.0969174 9.13987C-0.0323058 9.09293 -0.0323058 8.90971 0.0969174 8.86342L1.53059 8.34717C3.12177 7.7737 4.37478 6.52069 4.94825 4.92951L5.4645 3.49584C5.51079 3.36597 5.69402 3.36597 5.74095 3.49584Z" fill="white"/>
<path d="M12.1944 0.0496641L12.456 0.7755C12.7466 1.58106 13.3812 2.2156 14.1867 2.50619L14.9126 2.76785C14.9781 2.79164 14.9781 2.88422 14.9126 2.908L14.1867 3.16966C13.3812 3.46025 12.7466 4.0948 12.456 4.90035L12.1944 5.62619C12.1706 5.69177 12.078 5.69177 12.0542 5.62619L11.7926 4.90035C11.502 4.0948 10.8674 3.46025 10.0619 3.16966L9.33605 2.908C9.27047 2.88422 9.27047 2.79164 9.33605 2.76785L10.0619 2.50619C10.8674 2.2156 11.502 1.58106 11.7926 0.7755L12.0542 0.0496641C12.078 -0.0165547 12.1712 -0.0165547 12.1944 0.0496641Z" fill="white"/>
<path d="M12.1944 12.3734L12.456 13.0992C12.7466 13.9048 13.3812 14.5393 14.1867 14.8299L14.9126 15.0916C14.9781 15.1154 14.9781 15.208 14.9126 15.2317L14.1867 15.4934C13.3812 15.784 12.7466 16.4185 12.456 17.2241L12.1944 17.9499C12.1706 18.0155 12.078 18.0155 12.0542 17.9499L11.7926 17.2241C11.502 16.4185 10.8674 15.784 10.0619 15.4934L9.33605 15.2317C9.27047 15.208 9.27047 15.1154 9.33605 15.0916L10.0619 14.8299C10.8674 14.5393 11.502 13.9048 11.7926 13.0992L12.0542 12.3734C12.078 12.3078 12.1712 12.3078 12.1944 12.3734Z" fill="white"/>
</svg>
