<svg width="20" height="20" viewBox="0 0 20 20" fill="none" xmlns="http://www.w3.org/2000/svg">
<path fill-rule="evenodd" clip-rule="evenodd" d="M15.7394 9.30078C14.199 9.30078 12.9487 10.5509 12.9487 12.0911C12.9487 13.6314 14.199 14.8815 15.7394 14.8815C17.2799 14.8815 18.5301 13.6314 18.5301 12.0911C18.5301 10.5509 17.2799 9.30078 15.7394 9.30078ZM15.7394 10.6959C16.5096 10.6959 17.1348 11.321 17.1348 12.0911C17.1348 12.8612 16.5096 13.4863 15.7394 13.4863C14.9692 13.4863 14.3441 12.8612 14.3441 12.0911C14.3441 11.321 14.9692 10.6959 15.7394 10.6959Z" fill="white"/>
<path fill-rule="evenodd" clip-rule="evenodd" d="M13.0947 19.9984C14.5087 19.9984 16.9766 19.9984 18.3905 19.9863C18.9124 19.9863 19.4072 19.7278 19.7096 19.2943C20.0119 18.8609 20.0826 18.3075 19.9003 17.8117C19.2928 16.1087 17.6584 14.8828 15.7394 14.8828C13.8231 14.8828 12.1896 16.105 11.5663 17.808C11.3822 18.3075 11.4538 18.8656 11.7589 19.3018C12.0631 19.7389 12.5626 19.9984 13.0947 19.9984ZM13.0947 18.6033C13.0184 18.6033 12.9468 18.5661 12.9031 18.5037C12.8594 18.4414 12.8491 18.3614 12.8752 18.2898C12.8761 18.2898 12.8761 18.2889 12.8761 18.2889C13.304 17.1197 14.424 16.278 15.7394 16.278C17.0528 16.278 18.171 17.1169 18.5886 18.287C18.5896 18.2898 18.5896 18.2926 18.5905 18.2945C18.6156 18.3624 18.6063 18.4377 18.5645 18.4963C18.5235 18.5558 18.4565 18.5912 18.384 18.5912C18.3821 18.5912 18.3803 18.5912 18.3784 18.5912C16.9673 18.6033 14.5049 18.6033 13.0947 18.6033Z" fill="white"/>
<path fill-rule="evenodd" clip-rule="evenodd" d="M18.1395 7.21164V4.88636C18.1395 2.96009 16.5776 1.39844 14.6511 1.39844H3.48836C1.56185 1.39844 0 2.96009 0 4.88636V16.0477C0 17.974 1.56185 19.5356 3.48836 19.5356H9.06973C9.45484 19.5356 9.7674 19.2231 9.7674 18.838C9.7674 18.453 9.45484 18.1404 9.06973 18.1404C9.06973 18.1404 5.92369 18.1404 3.48836 18.1404C2.33208 18.1404 1.39534 17.2038 1.39534 16.0477V4.88636C1.39534 3.73023 2.33208 2.79361 3.48836 2.79361H14.6511C15.8074 2.79361 16.7441 3.73023 16.7441 4.88636V7.21164C16.7441 7.5967 17.0567 7.90922 17.4418 7.90922C17.8269 7.90922 18.1395 7.5967 18.1395 7.21164Z" fill="white"/>
<path fill-rule="evenodd" clip-rule="evenodd" d="M4.41846 0.697584V3.48792C4.41846 3.87298 4.73101 4.1855 5.11613 4.1855C5.50124 4.1855 5.8138 3.87298 5.8138 3.48792V0.697584C5.8138 0.312518 5.50124 0 5.11613 0C4.73101 0 4.41846 0.312518 4.41846 0.697584Z" fill="white"/>
<path fill-rule="evenodd" clip-rule="evenodd" d="M12.3252 0.697584V3.48792C12.3252 3.87298 12.6378 4.1855 13.0229 4.1855C13.408 4.1855 13.7205 3.87298 13.7205 3.48792V0.697584C13.7205 0.312518 13.408 0 13.0229 0C12.6378 0 12.3252 0.312518 12.3252 0.697584Z" fill="white"/>
<path fill-rule="evenodd" clip-rule="evenodd" d="M4.41837 8.83657H7.30208C7.6872 8.83657 7.99975 8.52406 7.99975 8.13899C7.99975 7.75392 7.6872 7.44141 7.30208 7.44141H4.41837C4.03326 7.44141 3.7207 7.75392 3.7207 8.13899C3.7207 8.52406 4.03326 8.83657 4.41837 8.83657Z" fill="white"/>
<path fill-rule="evenodd" clip-rule="evenodd" d="M4.41837 12.5553H9.06952C9.45463 12.5553 9.76719 12.2428 9.76719 11.8577C9.76719 11.4727 9.45463 11.1602 9.06952 11.1602H4.41837C4.03326 11.1602 3.7207 11.4727 3.7207 11.8577C3.7207 12.2428 4.03326 12.5553 4.41837 12.5553Z" fill="white"/>
</svg>
