<svg width="20" height="18" viewBox="0 0 20 18" fill="none" xmlns="http://www.w3.org/2000/svg">
<path d="M2.91114 17.61H1.49401L2.49609 16.6079C3.03641 16.0676 3.37382 15.3649 3.46453 14.6025C2.05459 13.6772 1.02358 12.4599 0.471684 11.0639C-0.0798229 9.66889 -0.149128 8.13325 0.271282 6.62294C0.775712 4.81071 1.95883 3.15893 3.60263 1.97182C5.38891 0.68186 7.61263 0 10.0334 0C13.083 0 15.6534 0.876158 17.4667 2.53369C19.1003 4.02698 20 6.04122 20 8.20542C20 9.25685 19.7859 10.2799 19.3637 11.2462C18.9268 12.2461 18.287 13.1364 17.4621 13.8924C15.6463 15.5564 13.0775 16.436 10.0334 16.436C8.90333 16.436 7.72412 16.2852 6.67132 16.0083C5.67478 17.0306 4.32441 17.61 2.91114 17.61ZM10.0334 1.174C5.17936 1.174 2.20087 4.06882 1.40228 6.93777C0.647628 9.64893 1.76007 12.2107 4.3781 13.7906L4.67062 13.9671L4.66162 14.3087C4.64378 14.9847 4.48262 15.6358 4.19417 16.2243C4.89658 15.9867 5.53394 15.5558 6.03305 14.9661L6.28123 14.6729L6.64928 14.783C7.68213 15.0919 8.88396 15.262 10.0334 15.262C16.0745 15.262 18.826 11.6041 18.826 8.20542C18.826 6.37491 18.062 4.66838 16.6746 3.40022C15.0814 1.94383 12.7849 1.174 10.0334 1.174Z" fill="white"/>
</svg>
