<svg width="20" height="19" viewBox="0 0 20 19" fill="none" xmlns="http://www.w3.org/2000/svg">
<path d="M15.1807 19C14.9178 19.0002 14.6588 18.9366 14.4264 18.8148L10.1088 16.5673C10.0753 16.5496 10.038 16.5403 10.0001 16.5403C9.96211 16.5403 9.92476 16.5496 9.8913 16.5673L5.57443 18.8148C5.30692 18.9542 5.00535 19.0167 4.70384 18.9952C4.40233 18.9736 4.11292 18.869 3.86836 18.693C3.62379 18.517 3.43384 18.2768 3.31998 17.9995C3.20613 17.7221 3.17292 17.4188 3.22412 17.1237L4.04843 12.3633C4.05476 12.326 4.05176 12.2877 4.03968 12.2518C4.02761 12.216 4.00682 12.1836 3.97916 12.1575L0.48937 8.78426C0.272697 8.57519 0.119478 8.3102 0.0470737 8.01931C-0.0253306 7.72843 -0.0140257 7.42327 0.0797075 7.13842C0.173441 6.85357 0.345855 6.60041 0.577415 6.40763C0.808975 6.21485 1.09042 6.09015 1.38987 6.04767L6.2131 5.35409C6.25063 5.34868 6.28626 5.3343 6.31692 5.31218C6.34758 5.29007 6.37233 5.26089 6.38904 5.22717L8.54539 0.894865C8.67896 0.626297 8.88578 0.400131 9.14244 0.241977C9.3991 0.0838228 9.69534 0 9.99763 0C10.2999 0 10.5962 0.0838228 10.8528 0.241977C11.1095 0.400131 11.3163 0.626297 11.4499 0.894865L13.6076 5.2258C13.6245 5.25941 13.6492 5.2885 13.6799 5.3106C13.7105 5.33269 13.7461 5.34714 13.7835 5.35272L18.6109 6.04698C18.9102 6.08971 19.1915 6.21454 19.4229 6.40735C19.6543 6.60016 19.8266 6.85325 19.9203 7.138C20.014 7.42275 20.0253 7.72778 19.9531 8.0186C19.8808 8.30941 19.7278 8.5744 19.5114 8.78358L16.0182 12.1547C15.9906 12.1809 15.9699 12.2133 15.9578 12.2492C15.9458 12.285 15.9427 12.3233 15.9489 12.3606L16.7732 17.1209C16.8129 17.351 16.8014 17.5868 16.7397 17.812C16.678 18.0372 16.5675 18.2463 16.4158 18.4249C16.2642 18.6035 16.0751 18.7472 15.8617 18.8461C15.6482 18.9449 15.4156 18.9965 15.18 18.9973L15.1807 19ZM10.0001 15.1678C10.2628 15.1678 10.5215 15.2313 10.7537 15.353L15.0706 17.5998C15.1088 17.6214 15.1526 17.6313 15.1965 17.6283C15.2404 17.6252 15.2824 17.6094 15.3172 17.5827C15.3535 17.558 15.3817 17.5233 15.3983 17.483C15.4149 17.4426 15.4192 17.3983 15.4107 17.3556L14.5857 12.5945C14.5416 12.3383 14.5609 12.0753 14.642 11.828C14.7231 11.5808 14.8635 11.3568 15.0512 11.1751L18.5444 7.80323C18.5756 7.77299 18.5976 7.73471 18.608 7.69272C18.6184 7.65073 18.6167 7.60671 18.6032 7.56561C18.5896 7.52451 18.5648 7.48799 18.5314 7.46015C18.498 7.43231 18.4574 7.41428 18.4142 7.40808L13.5875 6.71312C13.3277 6.67586 13.0809 6.5765 12.8685 6.42362C12.656 6.27075 12.4844 6.06896 12.3684 5.83568L10.2079 1.50406C10.1885 1.4653 10.1586 1.43267 10.1215 1.40985C10.0844 1.38703 10.0416 1.37494 9.99797 1.37494C9.95431 1.37494 9.91152 1.38703 9.87443 1.40985C9.83734 1.43267 9.80744 1.4653 9.78809 1.50406L7.63173 5.83431C7.51563 6.06767 7.34389 6.26952 7.13135 6.4224C6.91882 6.57528 6.67188 6.67459 6.4119 6.71175L1.5859 7.40808C1.54262 7.41414 1.50192 7.43212 1.46845 7.45997C1.43497 7.48782 1.41007 7.52442 1.39657 7.5656C1.38307 7.60678 1.38152 7.65089 1.39209 7.6929C1.40266 7.73491 1.42493 7.77314 1.45637 7.80323L4.94893 11.1751C5.13662 11.3568 5.27702 11.5808 5.35809 11.828C5.43916 12.0753 5.45849 12.3383 5.41442 12.5945L4.58942 17.3556C4.58194 17.3983 4.58673 17.4423 4.60325 17.4826C4.61977 17.5228 4.64735 17.5576 4.68287 17.583C4.71838 17.6085 4.76039 17.6235 4.80412 17.6265C4.84785 17.6295 4.89155 17.6202 4.93023 17.5998L9.2464 15.3524C9.47877 15.2312 9.73743 15.1678 10.0001 15.1678Z" fill="white"/>
</svg>
