<svg width="21" height="19" viewBox="0 0 21 19" fill="none" xmlns="http://www.w3.org/2000/svg">
<path d="M5.68677 3.68465V1.83701C5.68677 1.10166 6.28843 0.5 7.02378 0.5H13.9763C14.7117 0.5 15.3133 1.10166 15.3133 1.83701V3.68465" stroke="white" stroke-miterlimit="22.9256" stroke-linecap="round" stroke-linejoin="round"/>
<path d="M19.6701 9.66016V16.7452C19.6701 17.4297 19.1098 17.99 18.4253 17.99H2.57465C1.89012 17.99 1.32983 17.4299 1.32983 16.7452V9.70165" stroke="white" stroke-miterlimit="22.9256" stroke-linecap="round" stroke-linejoin="round"/>
<path d="M8.84025 11.7533C4.45066 11.5023 0.5 10.2471 0.5 7.98762V5.04169C0.5 4.35609 1.05917 3.79688 1.74481 3.79688H19.2552C19.9408 3.79688 20.5 4.35613 20.5 5.04169V7.98762C20.5 10.2612 16.4994 11.518 12.0768 11.7579" stroke="white" stroke-miterlimit="22.9256" stroke-linecap="round" stroke-linejoin="round"/>
<path fill-rule="evenodd" clip-rule="evenodd" d="M8.96484 10.5195H12.0354V11.9511C12.0354 12.7384 11.3912 13.3826 10.6038 13.3826H10.3964C9.60903 13.3826 8.96484 12.7384 8.96484 11.9511V10.5195Z" stroke="white" stroke-miterlimit="22.9256" stroke-linecap="round" stroke-linejoin="round"/>
</svg>
